{
  "accessors": [
    {
      "bufferView": 2,
      "componentType": 5126,
      "count": 4120,
      "max": [
        0.5530970096588135,
        0.8375849723815918,
        0.7125170230865479
      ],
      "min": [
        -0.5530970096588135,
        -1.0,
        -0.8891419768333435
      ],
      "type": "VEC3"
    },
    {
      "bufferView": 2,
      "byteOffset": 49440,
      "componentType": 5126,
      "count": 4120,
      "max": [
        0.999844491481781,
        0.9999949932098389,
        0.9996451139450073
      ],
      "min": [
        -0.999844491481781,
        -0.9999645352363586,
        -0.9996791481971741
      ],
      "type": "VEC3"
    },
    {
      "bufferView": 3,
      "componentType": 5126,
      "count": 4120,
      "max": [
        1.0,
        0.9982917308807373,
        0.9991866946220398,
        1.0
      ],
      "min": [
        -0.9999999403953552,
        -0.9998835325241089,
        -0.9999645352363586,
        -1.0
      ],
      "type": "VEC4"
    },
    {
      "bufferView": 1,
      "componentType": 5126,
      "count": 4120,
      "max": [
        0.962772011756897,
        0.9996610283851624
      ],
      "min": [
        0.0003391049976926297,
        0.0003391049976926297
      ],
      "type": "VEC2"
    },
    {
      "bufferView": 0,
      "componentType": 5125,
      "count": 20922,
      "type": "SCALAR"
    },
    {
      "bufferView": 2,
      "byteOffset": 98880,
      "componentType": 5126,
      "count": 2568,
      "max": [
        0.8899629712104797,
        1.0,
        0.4016830027103424
      ],
      "min": [
        -0.8899629712104797,
        -0.23620100319385529,
        -0.8169209957122803
      ],
      "type": "VEC3"
    },
    {
      "bufferView": 2,
      "byteOffset": 129696,
      "componentType": 5126,
      "count": 2568,
      "max": [
        0.9993370175361633,
        0.9998565316200256,
        0.997360110282898
      ],
      "min": [
        -0.9993370175361633,
        -0.9998204708099365,
        -0.9987817406654358
      ],
      "type": "VEC3"
    },
    {
      "bufferView": 3,
      "byteOffset": 65920,
      "componentType": 5126,
      "count": 2568,
      "max": [
        0.999441385269165,
        0.998314619064331,
        0.9991379976272583,
        1.0
      ],
      "min": [
        -0.9996341466903687,
        -0.9968777894973755,
        -0.9999229907989502,
        -1.0
      ],
      "type": "VEC4"
    },
    {
      "bufferView": 1,
      "byteOffset": 32960,
      "componentType": 5126,
      "count": 2568,
      "max": [
        0.9996569752693176,
        0.9929490089416504
      ],
      "min": [
        0.00034333299845457077,
        0.00034333299845457077
      ],
      "type": "VEC2"
    },
    {
      "bufferView": 0,
      "byteOffset": 83688,
      "componentType": 5125,
      "count": 12636,
      "type": "SCALAR"
    },
    {
      "bufferView": 2,
      "byteOffset": 160512,
      "componentType": 5126,
      "count": 686,
      "max": [
        0.5055199861526489,
        -0.22690099477767944,
        0.5063350200653076
      ],
      "min": [
        -0.5055199861526489,
        -0.8818489909172058,
        0.16252000629901886
      ],
      "type": "VEC3"
    },
    {
      "bufferView": 2,
      "byteOffset": 168744,
      "componentType": 5126,
      "count": 686,
      "max": [
        0.9972978830337524,
        0.8882219791412354,
        0.9948478937149048
      ],
      "min": [
        -0.9972978830337524,
        -0.9906934499740601,
        -0.9562777876853943
      ],
      "type": "VEC3"
    },
    {
      "bufferView": 3,
      "byteOffset": 107008,
      "componentType": 5126,
      "count": 686,
      "max": [
        0.9914302229881287,
        0.9885908961296082,
        0.9856384992599487,
        1.0
      ],
      "min": [
        -0.9335153698921204,
        -0.9885797500610352,
        -0.994979739189148,
        -1.0
      ],
      "type": "VEC4"
    },
    {
      "bufferView": 1,
      "byteOffset": 53504,
      "componentType": 5126,
      "count": 686,
      "max": [
        0.996694028377533,
        0.9997559785842896
      ],
      "min": [
        0.000243903006776236,
        0.000243903006776236
      ],
      "type": "VEC2"
    },
    {
      "bufferView": 0,
      "byteOffset": 134232,
      "componentType": 5125,
      "count": 3270,
      "type": "SCALAR"
    },
    {
      "bufferView": 2,
      "byteOffset": 176976,
      "componentType": 5126,
      "count": 924,
      "max": [
        0.46219000220298767,
        -0.5855079889297485,
        0.46912699937820435
      ],
      "min": [
        -0.46219000220298767,
        -0.8625869750976563,
        0.2713409960269928
      ],
      "type": "VEC3"
    },
    {
      "bufferView": 2,
      "byteOffset": 188064,
      "componentType": 5126,
      "count": 924,
      "max": [
        0.9573928713798523,
        0.9025178551673889,
        0.944126546382904
      ],
      "min": [
        -0.9573928713798523,
        -0.9025088548660278,
        -0.944126546382904
      ],
      "type": "VEC3"
    },
    {
      "bufferView": 3,
      "byteOffset": 117984,
      "componentType": 5126,
      "count": 924,
      "max": [
        0.978647768497467,
        0.8665311932563782,
        0.9520368576049805,
        1.0
      ],
      "min": [
        -0.978647768497467,
        -0.8622095584869385,
        -0.9520342350006104,
        -1.0
      ],
      "type": "VEC4"
    },
    {
      "bufferView": 1,
      "byteOffset": 58992,
      "componentType": 5126,
      "count": 924,
      "max": [
        1.0,
        1.0
      ],
      "min": [
        0.0,
        0.0
      ],
      "type": "VEC2"
    },
    {
      "bufferView": 0,
      "byteOffset": 147312,
      "componentType": 5125,
      "count": 2688,
      "type": "SCALAR"
    },
    {
      "bufferView": 2,
      "byteOffset": 199152,
      "componentType": 5126,
      "count": 1946,
      "max": [
        0.6107199788093567,
        0.6387349963188171,
        0.6331530213356018
      ],
      "min": [
        -0.6107199788093567,
        -0.44945400953292847,
        -0.6502590179443359
      ],
      "type": "VEC3"
    },
    {
      "bufferView": 2,
      "byteOffset": 222504,
      "componentType": 5126,
      "count": 1946,
      "max": [
        0.9999238848686218,
        0.9983976483345032,
        0.9984652400016785
      ],
      "min": [
        -0.9999238848686218,
        -0.9989491105079651,
        -0.9999873638153076
      ],
      "type": "VEC3"
    },
    {
      "bufferView": 3,
      "byteOffset": 132768,
      "componentType": 5126,
      "count": 1946,
      "max": [
        0.9965883493423462,
        0.991311252117157,
        0.934278130531311,
        1.0
      ],
      "min": [
        -0.9965866208076477,
        -0.91389399766922,
        -0.9996207356452942,
        -1.0
      ],
      "type": "VEC4"
    },
    {
      "bufferView": 1,
      "byteOffset": 66384,
      "componentType": 5126,
      "count": 1946,
      "max": [
        0.9998440146446228,
        0.9294549822807312
      ],
      "min": [
        0.00015588900714647025,
        0.00015588900714647025
      ],
      "type": "VEC2"
    },
    {
      "bufferView": 0,
      "byteOffset": 158064,
      "componentType": 5125,
      "count": 9882,
      "type": "SCALAR"
    },
    {
      "bufferView": 2,
      "byteOffset": 245856,
      "componentType": 5126,
      "count": 1864,
      "max": [
        0.7230709791183472,
        0.3957650065422058,
        0.8891419768333435
      ],
      "min": [
        -0.7230709791183472,
        -0.7750790119171143,
        -0.013143000192940235
      ],
      "type": "VEC3"
    },
    {
      "bufferView": 2,
      "byteOffset": 268224,
      "componentType": 5126,
      "count": 1864,
      "max": [
        0.9968097805976868,
        0.9870063662528992,
        0.9861162304878235
      ],
      "min": [
        -0.9968097805976868,
        -0.9998841285705566,
        -0.9971321225166321
      ],
      "type": "VEC3"
    },
    {
      "bufferView": 3,
      "byteOffset": 163904,
      "componentType": 5126,
      "count": 1864,
      "max": [
        1.0,
        0.9953503608703613,
        0.9993293285369873,
        1.0
      ],
      "min": [
        -1.0,
        -0.9953495264053345,
        -0.9993293285369873,
        -1.0
      ],
      "type": "VEC4"
    },
    {
      "bufferView": 1,
      "byteOffset": 81952,
      "componentType": 5126,
      "count": 1864,
      "max": [
        0.9997760057449341,
        0.7841410040855408
      ],
      "min": [
        0.00022436800645664334,
        0.00022436800645664334
      ],
      "type": "VEC2"
    },
    {
      "bufferView": 0,
      "byteOffset": 197592,
      "componentType": 5125,
      "count": 7464,
      "type": "SCALAR"
    }
  ],
  "asset": {
    "extras": {
      "author": "keianhzo (https://sketchfab.com/keianhzo)",
      "license": "CC-BY-4.0 (http://creativecommons.org/licenses/by/4.0/)",
      "source": "https://sketchfab.com/3d-models/sci-fi-helmet-f60bc46916f245fcaaa1f4aa73a0667a",
      "title": "Sci-Fi Helmet"
    },
    "generator": "Sketchfab-14.70.0",
    "version": "2.0"
  },
  "bufferViews": [
    {
      "buffer": 0,
      "byteLength": 227448,
      "name": "floatBufferViews",
      "target": 34963
    },
    {
      "buffer": 0,
      "byteLength": 96864,
      "byteOffset": 227448,
      "byteStride": 8,
      "name": "floatBufferViews",
      "target": 34962
    },
    {
      "buffer": 0,
      "byteLength": 290592,
      "byteOffset": 324312,
      "byteStride": 12,
      "name": "floatBufferViews",
      "target": 34962
    },
    {
      "buffer": 0,
      "byteLength": 193728,
      "byteOffset": 614904,
      "byteStride": 16,
      "name": "floatBufferViews",
      "target": 34962
    }
  ],
  "buffers": [
    {
      "byteLength": 808632,
      "uri": "scene.bin"
    }
  ],
  "extensionsUsed": [
    "KHR_materials_emissive_strength"
  ],
  "images": [
    {
      "uri": "textures/head_mouth_baseColor.jpeg"
    },
    {
      "uri": "textures/head_mouth_metallicRoughness.png"
    },
    {
      "uri": "textures/head_mouth_normal.png"
    },
    {
      "uri": "textures/head_sides_baseColor.jpeg"
    },
    {
      "uri": "textures/head_sides_metallicRoughness.png"
    },
    {
      "uri": "textures/head_sides_normal.jpeg"
    },
    {
      "uri": "textures/head_mouth_rack_metallicRoughness.png"
    },
    {
      "uri": "textures/head_mouth_rack_normal.jpeg"
    },
    {
      "uri": "textures/head_mouth_sides_baseColor.jpeg"
    },
    {
      "uri": "textures/head_mouth_sides_metallicRoughness.png"
    },
    {
      "uri": "textures/head_mouth_sides_normal.jpeg"
    },
    {
      "uri": "textures/head_up_baseColor.jpeg"
    },
    {
      "uri": "textures/head_up_metallicRoughness.png"
    },
    {
      "uri": "textures/head_up_normal.jpeg"
    },
    {
      "uri": "textures/head_main_baseColor.jpeg"
    },
    {
      "uri": "textures/head_main_metallicRoughness.png"
    },
    {
      "uri": "textures/head_main_emissive.jpeg"
    },
    {
      "uri": "textures/head_main_normal.jpeg"
    }
  ],
  "materials": [
    {
      "name": "head_mouth",
      "normalTexture": {
        "index": 2
      },
      "occlusionTexture": {
        "index": 1
      },
      "pbrMetallicRoughness": {
        "baseColorTexture": {
          "index": 0
        },
        "metallicRoughnessTexture": {
          "index": 1
        }
      }
    },
    {
      "name": "head_sides",
      "normalTexture": {
        "index": 5
      },
      "occlusionTexture": {
        "index": 4
      },
      "pbrMetallicRoughness": {
        "baseColorTexture": {
          "index": 3
        },
        "metallicRoughnessTexture": {
          "index": 4
        }
      }
    },
    {
      "emissiveFactor": [
        1.0,
        1.0,
        1.0
      ],
      "name": "head_mouth_rack",
      "normalTexture": {
        "index": 7
      },
      "occlusionTexture": {
        "index": 6
      },
      "pbrMetallicRoughness": {
        "metallicRoughnessTexture": {
          "index": 6
        }
      }
    },
    {
      "name": "head_mouth_sides",
      "normalTexture": {
        "index": 10
      },
      "occlusionTexture": {
        "index": 9
      },
      "pbrMetallicRoughness": {
        "baseColorTexture": {
          "index": 8
        },
        "metallicRoughnessTexture": {
          "index": 9
        }
      }
    },
    {
      "name": "head_up",
      "normalTexture": {
        "index": 13
      },
      "occlusionTexture": {
        "index": 12
      },
      "pbrMetallicRoughness": {
        "baseColorTexture": {
          "index": 11
        },
        "metallicRoughnessTexture": {
          "index": 12
        }
      }
    },
    {
      "emissiveFactor": [
        1.0,
        1.0,
        1.0
      ],
      "emissiveTexture": {
        "index": 16
      },
      "extensions": {
        "KHR_materials_emissive_strength": {
          "emissiveStrength": 2.785115751830287
        }
      },
      "name": "head_main",
      "normalTexture": {
        "index": 17
      },
      "occlusionTexture": {
        "index": 15
      },
      "pbrMetallicRoughness": {
        "baseColorTexture": {
          "index": 14
        },
        "metallicRoughnessTexture": {
          "index": 15
        }
      }
    }
  ],
  "meshes": [
    {
      "name": "defaultMaterial",
      "primitives": [
        {
          "attributes": {
            "NORMAL": 1,
            "POSITION": 0,
            "TANGENT": 2,
            "TEXCOORD_0": 3
          },
          "indices": 4,
          "material": 5,
          "mode": 4
        }
      ]
    },
    {
      "name": "defaultMaterial",
      "primitives": [
        {
          "attributes": {
            "NORMAL": 6,
            "POSITION": 5,
            "TANGENT": 7,
            "TEXCOORD_0": 8
          },
          "indices": 9,
          "material": 4,
          "mode": 4
        }
      ]
    },
    {
      "name": "defaultMaterial",
      "primitives": [
        {
          "attributes": {
            "NORMAL": 11,
            "POSITION": 10,
            "TANGENT": 12,
            "TEXCOORD_0": 13
          },
          "indices": 14,
          "material": 3,
          "mode": 4
        }
      ]
    },
    {
      "name": "defaultMaterial",
      "primitives": [
        {
          "attributes": {
            "NORMAL": 16,
            "POSITION": 15,
            "TANGENT": 17,
            "TEXCOORD_0": 18
          },
          "indices": 19,
          "material": 2,
          "mode": 4
        }
      ]
    },
    {
      "name": "defaultMaterial",
      "primitives": [
        {
          "attributes": {
            "NORMAL": 21,
            "POSITION": 20,
            "TANGENT": 22,
            "TEXCOORD_0": 23
          },
          "indices": 24,
          "material": 1,
          "mode": 4
        }
      ]
    },
    {
      "name": "defaultMaterial",
      "primitives": [
        {
          "attributes": {
            "NORMAL": 26,
            "POSITION": 25,
            "TANGENT": 27,
            "TEXCOORD_0": 28
          },
          "indices": 29,
          "material": 0,
          "mode": 4
        }
      ]
    }
  ],
  "nodes": [
    {
      "children": [
        1
      ],
      "matrix": [
        1.0,
        0.0,
        0.0,
        0.0,
        0.0,
        2.220446049250313e-16,
        -1.0,
        0.0,
        0.0,
        1.0,
        2.220446049250313e-16,
        0.0,
        0.0,
        0.0,
        0.0,
        1.0
      ],
      "name": "Sketchfab_model"
    },
    {
      "children": [
        2,
        4,
        6,
        8,
        10,
        12
      ],
      "matrix": [
        1.0,
        0.0,
        0.0,
        0.0,
        0.0,
        -4.371139006309477e-08,
        0.999999999999999,
        0.0,
        0.0,
        -0.999999999999999,
        -4.371139006309477e-08,
        0.0,
        0.0,
        0.0,
        0.0,
        1.0
      ],
      "name": "Collada visual scene group"
    },
    {
      "children": [
        3
      ],
      "name": "head_main_low.000"
    },
    {
      "mesh": 0,
      "name": "defaultMaterial"
    },
    {
      "children": [
        5
      ],
      "name": "head_up_low.000"
    },
    {
      "mesh": 1,
      "name": "defaultMaterial"
    },
    {
      "children": [
        7
      ],
      "name": "head_mouth_sides_low.000"
    },
    {
      "mesh": 2,
      "name": "defaultMaterial"
    },
    {
      "children": [
        9
      ],
      "name": "head_mouth_rack_low.000"
    },
    {
      "mesh": 3,
      "name": "defaultMaterial"
    },
    {
      "children": [
        11
      ],
      "name": "head_sides_low.000"
    },
    {
      "mesh": 4,
      "name": "defaultMaterial"
    },
    {
      "children": [
        13
      ],
      "name": "head_mouth_low.000"
    },
    {
      "mesh": 5,
      "name": "defaultMaterial"
    }
  ],
  "samplers": [
    {
      "magFilter": 9729,
      "minFilter": 9987,
      "wrapS": 10497,
      "wrapT": 10497
    }
  ],
  "scene": 0,
  "scenes": [
    {
      "name": "Sketchfab_Scene",
      "nodes": [
        0
      ]
    }
  ],
  "textures": [
    {
      "sampler": 0,
      "source": 0
    },
    {
      "sampler": 0,
      "source": 1
    },
    {
      "sampler": 0,
      "source": 2
    },
    {
      "sampler": 0,
      "source": 3
    },
    {
      "sampler": 0,
      "source": 4
    },
    {
      "sampler": 0,
      "source": 5
    },
    {
      "sampler": 0,
      "source": 6
    },
    {
      "sampler": 0,
      "source": 7
    },
    {
      "sampler": 0,
      "source": 8
    },
    {
      "sampler": 0,
      "source": 9
    },
    {
      "sampler": 0,
      "source": 10
    },
    {
      "sampler": 0,
      "source": 11
    },
    {
      "sampler": 0,
      "source": 12
    },
    {
      "sampler": 0,
      "source": 13
    },
    {
      "sampler": 0,
      "source": 14
    },
    {
      "sampler": 0,
      "source": 15
    },
    {
      "sampler": 0,
      "source": 16
    },
    {
      "sampler": 0,
      "source": 17
    }
  ]
}
