{
  "accessors": [
    {
      "bufferView": 2,
      "componentType": 5126,
      "count": 27420,
      "max": [
        12.520315170288086,
        25.837120056152344,
        18.77880096435547
      ],
      "min": [
        -19.99312400817871,
        -130.2689666748047,
        -47.20871353149414
      ],
      "type": "VEC3"
    },
    {
      "bufferView": 2,
      "byteOffset": 329040,
      "componentType": 5126,
      "count": 27420,
      "max": [
        1.0,
        1.0,
        1.0
      ],
      "min": [
        -1.0,
        -1.0,
        -1.0
      ],
      "type": "VEC3"
    },
    {
      "bufferView": 3,
      "componentType": 5126,
      "count": 27420,
      "max": [
        1.0,
        1.0,
        1.0,
        1.0
      ],
      "min": [
        -1.0,
        -1.0,
        -1.0,
        -1.0
      ],
      "type": "VEC4"
    },
    {
      "bufferView": 1,
      "componentType": 5126,
      "count": 27420,
      "max": [
        1.997664213180542,
        0.9968429207801819
      ],
      "min": [
        0.005034558475017548,
        0.005344015546143055
      ],
      "type": "VEC2"
    },
    {
      "bufferView": 0,
      "componentType": 5125,
      "count": 100629,
      "type": "SCALAR"
    }
  ],
  "asset": {
    "extras": {
      "author": "JuanXGL (https://sketchfab.com/juanfx1.0)",
      "license": "CC-BY-4.0 (http://creativecommons.org/licenses/by/4.0/)",
      "source": "https://sketchfab.com/3d-models/cerberusffvii-gun-model-by-andrew-maximov-d08c461f8217491892ad5dd29b436c90",
      "title": "Cerberus(FFVII Gun) model by Andrew Maximov."
    },
    "generator": "Sketchfab-12.67.0",
    "version": "2.0"
  },
  "bufferViews": [
    {
      "buffer": 0,
      "byteLength": 402516,
      "name": "floatBufferViews",
      "target": 34963
    },
    {
      "buffer": 0,
      "byteLength": 219360,
      "byteOffset": 402516,
      "byteStride": 8,
      "name": "floatBufferViews",
      "target": 34962
    },
    {
      "buffer": 0,
      "byteLength": 658080,
      "byteOffset": 621876,
      "byteStride": 12,
      "name": "floatBufferViews",
      "target": 34962
    },
    {
      "buffer": 0,
      "byteLength": 438720,
      "byteOffset": 1279956,
      "byteStride": 16,
      "name": "floatBufferViews",
      "target": 34962
    }
  ],
  "buffers": [
    {
      "byteLength": 1718676,
      "uri": "scene.bin"
    }
  ],
  "images": [
    {
      "uri": "textures/08_-_Default_baseColor.png"
    },
    {
      "uri": "textures/08_-_Default_metallicRoughness.png"
    },
    {
      "uri": "textures/08_-_Default_normal.png"
    }
  ],
  "materials": [
    {
      "name": "08_-_Default",
      "normalTexture": {
        "index": 2,
        "scale": 0.41
      },
      "pbrMetallicRoughness": {
        "baseColorTexture": {
          "index": 0
        },
        "metallicRoughnessTexture": {
          "index": 1
        }
      }
    }
  ],
  "meshes": [
    {
      "name": "Cerberus00_Fixed_08 - Default_0",
      "primitives": [
        {
          "attributes": {
            "NORMAL": 1,
            "POSITION": 0,
            "TANGENT": 2,
            "TEXCOORD_0": 3
          },
          "indices": 4,
          "material": 0,
          "mode": 4
        }
      ]
    }
  ],
  "nodes": [
    {
      "children": [
        1
      ],
      "matrix": [
        1.0,
        0.0,
        0.0,
        0.0,
        0.0,
        2.220446049250313e-16,
        -1.0,
        0.0,
        0.0,
        1.0,
        2.220446049250313e-16,
        0.0,
        0.0,
        0.0,
        0.0,
        1.0
      ],
      "name": "Sketchfab_model"
    },
    {
      "children": [
        2
      ],
      "matrix": [
        1.0,
        0.0,
        0.0,
        0.0,
        0.0,
        0.0,
        1.0,
        0.0,
        0.0,
        -1.0,
        0.0,
        0.0,
        0.0,
        0.0,
        0.0,
        1.0
      ],
      "name": "5f99eff2796e438a94abd9cdecf2a893.fbx"
    },
    {
      "children": [
        3
      ],
      "name": "RootNode"
    },
    {
      "children": [
        4
      ],
      "matrix": [
        1.0,
        0.0,
        0.0,
        0.0,
        0.0,
        2.220446049250313e-16,
        -1.0,
        0.0,
        0.0,
        1.0,
        2.220446049250313e-16,
        0.0,
        0.0,
        0.0,
        0.0,
        1.0
      ],
      "name": "Cerberus00_Fixed"
    },
    {
      "children": [
        5
      ],
      "matrix": [
        1.0,
        0.0,
        -0.0,
        0.0,
        0.0,
        1.0,
        0.0,
        0.0,
        0.0,
        0.0,
        1.0,
        0.0,
        2.2559845547220903e-06,
        93.72016143798828,
        4.096638349437853e-06,
        1.0
      ],
      "name": "Object_4"
    },
    {
      "mesh": 0,
      "name": "Cerberus00_Fixed_08 - Default_0"
    }
  ],
  "samplers": [
    {
      "magFilter": 9729,
      "minFilter": 9987,
      "wrapS": 10497,
      "wrapT": 10497
    }
  ],
  "scene": 0,
  "scenes": [
    {
      "name": "Sketchfab_Scene",
      "nodes": [
        0
      ]
    }
  ],
  "textures": [
    {
      "sampler": 0,
      "source": 0
    },
    {
      "sampler": 0,
      "source": 1
    },
    {
      "sampler": 0,
      "source": 2
    }
  ]
}
